<?xml version="1.0" encoding="utf-8"?>
<!-- Generator: Adobe Illustrator 24.0.2, SVG Export Plug-In . SVG Version: 6.00 Build 0)  -->
<svg version="1.1" id="Capa_1" xmlns="http://www.w3.org/2000/svg" xmlns:xlink="http://www.w3.org/1999/xlink" x="0px" y="0px"
	 viewBox="0 0 36.9 36.9" style="enable-background:new 0 0 36.9 36.9;" xml:space="preserve">
<style type="text/css">
	.st0{fill:#A783E0;}
</style>
<g>
	<path class="st0" d="M29.4,14.2l1.7-7.3c0.1,0,0.2,0,0.3,0c1.8,0,3.3-1.5,3.3-3.3s-1.5-3.3-3.3-3.3c-1.8,0-3.3,1.5-3.3,3.3
		c0,1.3,0.8,2.5,2,3l-1.7,7.2c-1-0.3-2-0.4-3.1-0.4c-3.1,0-5.9,1.2-7.9,3.2l-5.9-6.7c1.1-1,1.8-2.3,1.8-3.9c0-2.9-2.4-5.3-5.3-5.3
		S2.7,3.1,2.7,6c0,2.9,2.4,5.3,5.3,5.3c1,0,1.9-0.3,2.7-0.8l6.1,6.8c-1.7,2-2.8,4.6-2.9,7.4l-5.4,0.4c0,0,0-0.1,0-0.1
		c0-2.3-1.9-4.3-4.3-4.3C1.9,20.8,0,22.7,0,25c0,2.3,1.9,4.3,4.3,4.3c1.9,0,3.6-1.3,4.1-3.1l5.6-0.4c0.4,6,5.4,10.7,11.5,10.7
		c6.3,0,11.5-5.2,11.5-11.5C36.8,20,33.8,15.8,29.4,14.2z M29.2,3.7c0-1.2,1-2.3,2.3-2.3s2.3,1,2.3,2.3s-1,2.2-2.3,2.2
		S29.2,4.9,29.2,3.7z M3.7,6c0-2.3,1.9-4.3,4.3-4.3s4.3,1.9,4.3,4.3s-1.9,4.3-4.3,4.3S3.7,8.4,3.7,6z M4.2,28.3
		C2.5,28.3,1,26.8,1,25c0-1.8,1.5-3.3,3.3-3.3s3.3,1.5,3.3,3.3C7.5,26.8,6,28.3,4.2,28.3z M25.3,35.2c-5.7,0-10.3-4.6-10.3-10.3
		c0-5.7,4.6-10.3,10.3-10.3c5.7,0,10.3,4.6,10.3,10.3C35.6,30.6,31,35.2,25.3,35.2z M25.3,24.1h-0.9V22h0.9c0.6,0,0.9,0,1.1,0.1
		c0.2,0.1,0.4,0.2,0.5,0.3c0.1,0.2,0.2,0.4,0.2,0.6c0,0.2-0.1,0.4-0.2,0.6c-0.1,0.2-0.3,0.3-0.5,0.4S25.8,24.1,25.3,24.1z
		 M27.1,25.9c0.1,0.2,0.2,0.4,0.2,0.6c0,0.3-0.1,0.6-0.3,0.8s-0.4,0.4-0.6,0.4c-0.2,0.1-0.5,0.1-0.9,0.1h-0.6c-0.2,0-0.3,0-0.4,0
		c0,0-0.1-0.1-0.1-0.1c0,0,0-0.2,0-0.5v-1.9h1.1c0.5,0,0.9,0,1.1,0.1C26.8,25.6,27,25.7,27.1,25.9z M25.3,15.7
		c-5.1,0-9.2,4.1-9.2,9.2s4.1,9.2,9.2,9.2c5.1,0,9.2-4.1,9.2-9.2C34.5,19.8,30.4,15.7,25.3,15.7z M29.1,28c-0.3,0.4-0.7,0.7-1.2,0.9
		c-0.2,0.1-0.4,0.1-0.6,0.2v1.5h-1.5v-1.4c0,0-0.1,0-0.1,0h-0.8v1.4h-1.5v-1.4h-2.2V28h0.3c0.2,0,0.4,0,0.5-0.1s0.1-0.1,0.2-0.2
		s0-0.2,0-0.5v-4.8c0-0.3,0-0.4,0-0.5c0-0.1-0.1-0.1-0.2-0.2s-0.2-0.1-0.5-0.1h-0.3v-1.2h2.2v-1.4h1.5v1.4h0.9v-1.4h1.5v1.5
		c0.2,0,0.4,0.1,0.6,0.2c0.4,0.2,0.8,0.4,1,0.8c0.2,0.3,0.3,0.7,0.3,1.1c0,0.3-0.1,0.6-0.2,0.8c-0.1,0.3-0.3,0.5-0.5,0.7
		c-0.2,0.2-0.5,0.4-0.9,0.5c0.4,0.1,0.7,0.2,0.9,0.3c0.3,0.2,0.6,0.4,0.7,0.7c0.2,0.3,0.3,0.7,0.3,1C29.5,27.2,29.4,27.6,29.1,28z
		 M31.5,5.2c-0.9,0-1.5-0.7-1.5-1.5c0-0.9,0.7-1.5,1.5-1.5c0.9,0,1.5,0.7,1.5,1.5S32.3,5.2,31.5,5.2z M11,6c0,1.7-1.4,3-3,3
		S5,7.7,5,6c0-1.7,1.4-3,3-3C9.7,3,11,4.3,11,6z M6.3,25c0,1.1-0.9,2-2,2s-2-0.9-2-2s0.9-2,2-2S6.3,23.9,6.3,25z"/>
</g>
</svg>
