<?xml version="1.0" encoding="utf-8"?>
<!-- Generator: Adobe Illustrator 24.0.2, SVG Export Plug-In . SVG Version: 6.00 Build 0)  -->
<svg version="1.1" id="Capa_1" xmlns="http://www.w3.org/2000/svg" xmlns:xlink="http://www.w3.org/1999/xlink" x="0px" y="0px"
	 viewBox="0 0 151 24" style="enable-background:new 0 0 151 24;" xml:space="preserve">
<style type="text/css">
	.st0{fill:#8D71C1;}
	.st1{fill:#A783E0;}
	.st2{fill:#DACBF2;}
</style>
<path class="st0" d="M16.9,20.3c-6.4,2-16.8,0-16.9-8.9c-0.1-8.9,11-3.6,11-3.6L16.9,20.3z"/>
<path class="st1" d="M3.1,6.4c4.5-0.8,7.9,5.2,11.7,11.4c3.8,6.2,13.6,8.7,19.8,3.4c6.3-5.2,8.9-14.3,1.2-19.8
	c-7.7-5.4-12.5,6.9-19.1,7.3C10.1,9,10,4.1,3.1,6.4z"/>
<circle class="st2" cx="35.4" cy="11.8" r="2.2"/>
<circle class="st2" cx="31.2" cy="13.4" r="1.6"/>
<circle class="st2" cx="34" cy="15.1" r="1.1"/>
<path class="st1" d="M51.1,20V3.2h6.7c1.7,0,3.1,0.4,4,1.2c0.9,0.8,1.4,1.8,1.4,3.1c0,1.1-0.3,1.9-0.9,2.5c-0.6,0.6-1.2,1-2.1,1.3
	c1,0.2,1.8,0.7,2.4,1.4c0.6,0.8,0.9,1.6,0.9,2.6c0,1.3-0.5,2.4-1.4,3.3c-1,0.9-2.3,1.3-4.1,1.3H51.1z M54.2,10.3h3.2
	c0.9,0,1.5-0.2,2-0.6c0.5-0.4,0.7-1,0.7-1.7c0-0.7-0.2-1.3-0.7-1.7c-0.4-0.4-1.1-0.6-2-0.6h-3.2V10.3z M54.2,17.5h3.4
	c0.9,0,1.6-0.2,2.1-0.6c0.5-0.4,0.8-1,0.8-1.8c0-0.8-0.3-1.4-0.8-1.8s-1.2-0.7-2.1-0.7h-3.4V17.5z M69.3,20.3c-1,0-1.9-0.2-2.5-0.5
	c-0.7-0.3-1.1-0.8-1.5-1.3c-0.3-0.5-0.5-1.1-0.5-1.8c0-1.1,0.4-2,1.3-2.7c0.9-0.7,2.2-1,3.9-1h3v-0.3c0-0.8-0.2-1.4-0.7-1.8
	c-0.5-0.4-1-0.6-1.7-0.6c-0.6,0-1.2,0.2-1.6,0.5c-0.5,0.3-0.8,0.7-0.9,1.3h-3c0.1-0.9,0.4-1.6,0.9-2.3c0.5-0.6,1.2-1.1,2-1.5
	c0.8-0.4,1.7-0.5,2.7-0.5c1.7,0,3,0.4,4,1.3c1,0.8,1.5,2,1.5,3.6V20h-2.6l-0.3-1.9c-0.4,0.6-0.8,1.2-1.5,1.6
	C71.1,20.1,70.3,20.3,69.3,20.3z M70,17.9c0.9,0,1.6-0.3,2-0.9c0.5-0.6,0.8-1.3,0.9-2.1h-2.6c-0.8,0-1.4,0.2-1.8,0.5
	c-0.4,0.3-0.5,0.6-0.5,1.1c0,0.5,0.2,0.8,0.5,1.1C69,17.8,69.4,17.9,70,17.9z M83.2,20c-1.2,0-2.2-0.3-3-0.9s-1.1-1.7-1.1-3.2v-5.2
	h-2V8.1h2l0.4-3.2h2.7v3.2h3.2v2.6h-3.2v5.2c0,0.6,0.1,1,0.4,1.2c0.3,0.2,0.7,0.3,1.3,0.3h1.5V20H83.2z M91.2,20.3
	c-1,0-1.9-0.2-2.5-0.5c-0.7-0.3-1.1-0.8-1.5-1.3c-0.3-0.5-0.5-1.1-0.5-1.8c0-1.1,0.4-2,1.3-2.7s2.2-1,3.9-1h3v-0.3
	c0-0.8-0.2-1.4-0.7-1.8c-0.5-0.4-1-0.6-1.7-0.6c-0.6,0-1.2,0.2-1.6,0.5c-0.5,0.3-0.8,0.7-0.9,1.3h-3c0.1-0.9,0.4-1.6,0.9-2.3
	c0.5-0.6,1.2-1.1,2-1.5c0.8-0.4,1.7-0.5,2.7-0.5c1.7,0,3,0.4,4,1.3c1,0.8,1.5,2,1.5,3.6V20h-2.6l-0.3-1.9c-0.4,0.6-0.8,1.2-1.5,1.6
	C93,20.1,92.2,20.3,91.2,20.3z M91.9,17.9c0.9,0,1.6-0.3,2-0.9c0.5-0.6,0.8-1.3,0.9-2.1h-2.6c-0.8,0-1.4,0.2-1.8,0.5
	C90.1,15.6,90,16,90,16.4c0,0.5,0.2,0.8,0.5,1.1S91.3,17.9,91.9,17.9z M105.1,20c-1.2,0-2.2-0.3-3-0.9c-0.8-0.6-1.1-1.7-1.1-3.2
	v-5.2h-2V8.1h2l0.4-3.2h2.7v3.2h3.2v2.6h-3.2v5.2c0,0.6,0.1,1,0.4,1.2c0.3,0.2,0.7,0.3,1.3,0.3h1.5V20H105.1z M113.1,20.3
	c-1,0-1.9-0.2-2.5-0.5c-0.7-0.3-1.1-0.8-1.5-1.3c-0.3-0.5-0.5-1.1-0.5-1.8c0-1.1,0.4-2,1.3-2.7s2.2-1,3.9-1h3v-0.3
	c0-0.8-0.2-1.4-0.7-1.8c-0.5-0.4-1-0.6-1.7-0.6c-0.6,0-1.2,0.2-1.6,0.5c-0.5,0.3-0.8,0.7-0.9,1.3h-3c0.1-0.9,0.4-1.6,0.9-2.3
	c0.5-0.6,1.2-1.1,2-1.5c0.8-0.4,1.7-0.5,2.7-0.5c1.7,0,3,0.4,4,1.3c1,0.8,1.5,2,1.5,3.6V20h-2.6l-0.3-1.9c-0.4,0.6-0.8,1.2-1.5,1.6
	C114.9,20.1,114.1,20.3,113.1,20.3z M113.8,17.9c0.9,0,1.6-0.3,2-0.9c0.5-0.6,0.8-1.3,0.9-2.1h-2.6c-0.8,0-1.4,0.2-1.8,0.5
	c-0.4,0.3-0.5,0.6-0.5,1.1c0,0.5,0.2,0.8,0.5,1.1S113.2,17.9,113.8,17.9z M128.9,20.3c-0.9,0-1.7-0.2-2.4-0.5
	c-0.7-0.3-1.2-0.8-1.6-1.4l-0.3,1.6h-2.7V2.7h3.1v7.1c0.4-0.5,0.9-1,1.5-1.4c0.6-0.4,1.5-0.6,2.5-0.6c1.1,0,2.1,0.3,3,0.8
	c0.9,0.5,1.6,1.3,2.1,2.2c0.5,0.9,0.8,2,0.8,3.2s-0.3,2.3-0.8,3.2c-0.5,0.9-1.2,1.7-2.1,2.2C131,20,130,20.3,128.9,20.3z
	 M128.3,17.6c1,0,1.8-0.3,2.4-1c0.6-0.7,1-1.5,1-2.5s-0.3-1.9-1-2.6s-1.4-1-2.4-1c-1,0-1.8,0.3-2.4,1c-0.6,0.7-0.9,1.5-0.9,2.5
	s0.3,1.9,0.9,2.6C126.4,17.3,127.3,17.6,128.3,17.6z M138.2,6.2c-0.6,0-1-0.2-1.4-0.5c-0.4-0.3-0.5-0.8-0.5-1.3s0.2-0.9,0.5-1.2
	c0.4-0.3,0.8-0.5,1.4-0.5s1,0.2,1.4,0.5c0.4,0.3,0.6,0.7,0.6,1.2s-0.2,0.9-0.6,1.3C139.2,6.1,138.8,6.2,138.2,6.2z M136.7,20V8.1
	h3.1V20H136.7z M147.3,20c-1.2,0-2.2-0.3-3-0.9s-1.1-1.7-1.1-3.2v-5.2h-2V8.1h2l0.4-3.2h2.7v3.2h3.2v2.6h-3.2v5.2
	c0,0.6,0.1,1,0.4,1.2c0.3,0.2,0.7,0.3,1.3,0.3h1.5V20H147.3z"/>
</svg>
