<?xml version="1.0" encoding="utf-8"?>
<!-- Generator: Adobe Illustrator 24.0.2, SVG Export Plug-In . SVG Version: 6.00 Build 0)  -->
<svg version="1.1" id="Capa_1" xmlns="http://www.w3.org/2000/svg" xmlns:xlink="http://www.w3.org/1999/xlink" x="0px" y="0px"
	 viewBox="0 0 64 50" style="enable-background:new 0 0 64 50;" xml:space="preserve">
<style type="text/css">
	.st0{fill:#DDC8FF;}
	.st1{fill:#8D71C1;}
	.st2{fill:#A783E0;}
</style>
<path class="st0" d="M2.4,41.6c-0.3,0-0.6-0.1-0.9-0.2c-0.2-0.1-0.4-0.3-0.6-0.6c-0.1-0.3-0.2-0.5-0.2-0.9c0-0.3,0.1-0.6,0.2-0.8
	c0.1-0.3,0.3-0.4,0.6-0.6c0.3-0.1,0.5-0.2,0.9-0.2c0.3,0,0.6,0.1,0.8,0.2c0.3,0.1,0.4,0.3,0.6,0.6C3.9,39.4,4,39.6,4,40
	c0,0.3-0.1,0.6-0.2,0.9c-0.1,0.2-0.3,0.4-0.6,0.6C3,41.5,2.7,41.6,2.4,41.6z M2.4,41.3c0.4,0,0.7-0.1,0.9-0.4s0.4-0.6,0.4-1
	c0-0.4-0.1-0.7-0.4-0.9s-0.5-0.4-0.9-0.4c-0.4,0-0.7,0.1-0.9,0.4S1.1,39.6,1.1,40c0,0.4,0.1,0.7,0.4,1S2,41.3,2.4,41.3z M1.7,40.8
	v-1.7h0.8c0.2,0,0.3,0,0.4,0.1s0.2,0.2,0.2,0.4c0,0.3-0.1,0.4-0.4,0.5l0.4,0.7H2.7l-0.4-0.6H2.1v0.6H1.7z M2.1,39.8h0.3
	c0.1,0,0.1,0,0.2,0c0,0,0.1-0.1,0.1-0.2c0-0.1,0-0.1-0.1-0.1c0,0-0.1,0-0.2,0H2.1V39.8z M7,44v-5.6h2.1c0.6,0,1,0.1,1.3,0.4
	c0.3,0.3,0.4,0.6,0.4,1c0,0.4-0.1,0.6-0.3,0.9c-0.2,0.2-0.4,0.3-0.7,0.4c0.2,0,0.4,0.1,0.6,0.3c0.2,0.1,0.3,0.3,0.4,0.5
	c0.1,0.2,0.1,0.4,0.1,0.6c0,0.3-0.1,0.5-0.2,0.8c-0.1,0.2-0.3,0.4-0.6,0.5c-0.3,0.1-0.6,0.2-1,0.2H7z M7.8,40.8H9
	c0.3,0,0.6-0.1,0.7-0.2c0.2-0.2,0.3-0.4,0.3-0.6c0-0.3-0.1-0.5-0.3-0.6c-0.2-0.2-0.4-0.2-0.8-0.2H7.8V40.8z M7.8,43.3H9
	c0.3,0,0.6-0.1,0.8-0.2c0.2-0.2,0.3-0.4,0.3-0.7c0-0.3-0.1-0.5-0.3-0.7c-0.2-0.2-0.5-0.3-0.8-0.3H7.8V43.3z M13.2,44.1
	c-0.3,0-0.6-0.1-0.8-0.2c-0.2-0.1-0.4-0.3-0.5-0.4c-0.1-0.2-0.2-0.4-0.2-0.6c0-0.4,0.1-0.7,0.4-0.9c0.3-0.2,0.7-0.3,1.3-0.3h1v-0.1
	c0-0.3-0.1-0.5-0.3-0.7c-0.2-0.2-0.4-0.2-0.6-0.2c-0.2,0-0.4,0.1-0.6,0.2c-0.2,0.1-0.3,0.3-0.3,0.5h-0.8c0-0.3,0.1-0.5,0.3-0.7
	c0.2-0.2,0.4-0.4,0.6-0.5c0.3-0.1,0.5-0.2,0.9-0.2c0.6,0,1,0.1,1.3,0.4c0.3,0.3,0.5,0.7,0.5,1.2V44h-0.7l-0.1-0.7
	c-0.1,0.2-0.3,0.4-0.5,0.6C13.9,44,13.6,44.1,13.2,44.1z M13.4,43.4c0.2,0,0.4-0.1,0.6-0.2c0.2-0.1,0.3-0.3,0.4-0.4
	c0.1-0.2,0.1-0.4,0.2-0.6h-0.9c-0.3,0-0.6,0.1-0.7,0.2c-0.1,0.1-0.2,0.3-0.2,0.4c0,0.2,0.1,0.3,0.2,0.4C13,43.4,13.2,43.4,13.4,43.4
	z M17.9,44c-0.4,0-0.7-0.1-0.9-0.3c-0.2-0.2-0.3-0.5-0.3-1v-2H16V40h0.7l0.1-1h0.7v1h1.1v0.7h-1.1v2c0,0.2,0,0.4,0.1,0.5
	c0.1,0.1,0.3,0.1,0.5,0.1h0.5V44H17.9z M20.8,44.1c-0.3,0-0.6-0.1-0.8-0.2c-0.2-0.1-0.4-0.3-0.5-0.4c-0.1-0.2-0.2-0.4-0.2-0.6
	c0-0.4,0.1-0.7,0.4-0.9c0.3-0.2,0.7-0.3,1.3-0.3h1v-0.1c0-0.3-0.1-0.5-0.3-0.7c-0.2-0.2-0.4-0.2-0.6-0.2c-0.2,0-0.4,0.1-0.6,0.2
	c-0.2,0.1-0.3,0.3-0.3,0.5h-0.8c0-0.3,0.1-0.5,0.3-0.7c0.2-0.2,0.4-0.4,0.6-0.5c0.3-0.1,0.5-0.2,0.9-0.2c0.6,0,1,0.1,1.3,0.4
	c0.3,0.3,0.5,0.7,0.5,1.2V44h-0.7l-0.1-0.7c-0.1,0.2-0.3,0.4-0.5,0.6C21.5,44,21.2,44.1,20.8,44.1z M21,43.4c0.2,0,0.4-0.1,0.6-0.2
	c0.2-0.1,0.3-0.3,0.4-0.4c0.1-0.2,0.1-0.4,0.2-0.6h-0.9c-0.3,0-0.6,0.1-0.7,0.2c-0.1,0.1-0.2,0.3-0.2,0.4c0,0.2,0.1,0.3,0.2,0.4
	C20.6,43.4,20.8,43.4,21,43.4z M25.6,44c-0.4,0-0.7-0.1-0.9-0.3c-0.2-0.2-0.3-0.5-0.3-1v-2h-0.7V40h0.7l0.1-1h0.7v1h1.1v0.7h-1.1v2
	c0,0.2,0,0.4,0.1,0.5c0.1,0.1,0.3,0.1,0.5,0.1h0.5V44H25.6z M28.5,44.1c-0.3,0-0.6-0.1-0.8-0.2c-0.2-0.1-0.4-0.3-0.5-0.4
	C27,43.3,27,43.1,27,42.9c0-0.4,0.1-0.7,0.4-0.9c0.3-0.2,0.7-0.3,1.3-0.3h1v-0.1c0-0.3-0.1-0.5-0.3-0.7c-0.2-0.2-0.4-0.2-0.6-0.2
	c-0.2,0-0.4,0.1-0.6,0.2c-0.2,0.1-0.3,0.3-0.3,0.5h-0.8c0-0.3,0.1-0.5,0.3-0.7c0.2-0.2,0.4-0.4,0.6-0.5c0.3-0.1,0.5-0.2,0.9-0.2
	c0.6,0,1,0.1,1.3,0.4c0.3,0.3,0.5,0.7,0.5,1.2V44h-0.7l-0.1-0.7c-0.1,0.2-0.3,0.4-0.5,0.6C29.1,44,28.8,44.1,28.5,44.1z M28.6,43.4
	c0.2,0,0.4-0.1,0.6-0.2c0.2-0.1,0.3-0.3,0.4-0.4c0.1-0.2,0.1-0.4,0.2-0.6h-0.9c-0.3,0-0.6,0.1-0.7,0.2c-0.1,0.1-0.2,0.3-0.2,0.4
	c0,0.2,0.1,0.3,0.2,0.4C28.2,43.4,28.4,43.4,28.6,43.4z M33.8,44.1c-0.3,0-0.6-0.1-0.8-0.2c-0.2-0.1-0.4-0.3-0.6-0.5L32.4,44h-0.8
	v-5.8h0.8v2.4c0.1-0.2,0.3-0.4,0.5-0.5c0.2-0.1,0.5-0.2,0.9-0.2c0.4,0,0.7,0.1,1,0.3s0.5,0.4,0.7,0.7c0.2,0.3,0.3,0.7,0.3,1.1
	c0,0.4-0.1,0.8-0.3,1.1c-0.2,0.3-0.4,0.6-0.7,0.7C34.6,44,34.2,44.1,33.8,44.1z M33.7,43.4c0.4,0,0.7-0.1,0.9-0.4
	c0.2-0.3,0.4-0.6,0.4-1c0-0.3-0.1-0.5-0.2-0.7c-0.1-0.2-0.3-0.4-0.4-0.5c-0.2-0.1-0.4-0.2-0.6-0.2c-0.4,0-0.7,0.1-0.9,0.4
	c-0.2,0.3-0.3,0.6-0.3,1c0,0.4,0.1,0.7,0.3,1C33,43.2,33.3,43.4,33.7,43.4z M37.2,39.3c-0.2,0-0.3,0-0.4-0.1
	c-0.1-0.1-0.2-0.2-0.2-0.4c0-0.1,0.1-0.3,0.2-0.4c0.1-0.1,0.2-0.2,0.4-0.2s0.3,0.1,0.4,0.2c0.1,0.1,0.2,0.2,0.2,0.4
	c0,0.1-0.1,0.3-0.2,0.4C37.5,39.2,37.4,39.3,37.2,39.3z M36.8,44v-4h0.8v4H36.8z M40.4,44c-0.4,0-0.7-0.1-0.9-0.3
	c-0.2-0.2-0.3-0.5-0.3-1v-2h-0.7V40h0.7l0.1-1H40v1h1.1v0.7H40v2c0,0.2,0,0.4,0.1,0.5c0.1,0.1,0.3,0.1,0.5,0.1h0.5V44H40.4z
	 M43.9,44v-0.6c0.4-0.3,0.7-0.6,1-0.9c0.3-0.3,0.6-0.6,0.9-0.9c0.3-0.3,0.5-0.6,0.6-0.8c0.1-0.3,0.2-0.5,0.2-0.8
	c0-0.2,0-0.3-0.1-0.5c-0.1-0.2-0.2-0.3-0.3-0.4C46.2,39.1,46,39,45.8,39c-0.3,0-0.6,0.1-0.8,0.3c-0.2,0.2-0.2,0.5-0.2,0.8h-0.8
	c0-0.4,0.1-0.7,0.2-1c0.2-0.3,0.4-0.5,0.7-0.6c0.3-0.1,0.6-0.2,0.9-0.2c0.5,0,0.9,0.1,1.3,0.4c0.3,0.3,0.5,0.7,0.5,1.2
	c0,0.3-0.1,0.6-0.2,0.9c-0.1,0.3-0.3,0.6-0.6,0.9c-0.2,0.3-0.5,0.5-0.8,0.8c-0.3,0.3-0.5,0.5-0.8,0.7h2.6V44H43.9z M50.8,44.1
	c-0.5,0-0.9-0.1-1.3-0.4c-0.4-0.2-0.6-0.6-0.8-1c-0.2-0.4-0.3-0.9-0.3-1.5s0.1-1.1,0.3-1.5c0.2-0.4,0.5-0.8,0.8-1
	c0.4-0.2,0.8-0.4,1.3-0.4c0.5,0,0.9,0.1,1.3,0.4c0.4,0.2,0.6,0.6,0.8,1c0.2,0.4,0.3,0.9,0.3,1.5s-0.1,1.1-0.3,1.5
	c-0.2,0.4-0.5,0.8-0.8,1C51.7,44,51.3,44.1,50.8,44.1z M50.8,43.3c0.3,0,0.6-0.1,0.8-0.3c0.2-0.2,0.4-0.4,0.6-0.7
	c0.1-0.3,0.2-0.7,0.2-1.1s-0.1-0.8-0.2-1.1c-0.1-0.3-0.3-0.6-0.6-0.7c-0.2-0.2-0.5-0.3-0.8-0.3c-0.3,0-0.6,0.1-0.8,0.3
	c-0.2,0.2-0.4,0.4-0.6,0.7c-0.1,0.3-0.2,0.7-0.2,1.1s0.1,0.8,0.2,1.1c0.1,0.3,0.3,0.6,0.6,0.7C50.2,43.3,50.5,43.3,50.8,43.3z
	 M54,44v-0.6c0.4-0.3,0.7-0.6,1-0.9c0.3-0.3,0.6-0.6,0.9-0.9c0.3-0.3,0.5-0.6,0.6-0.8c0.1-0.3,0.2-0.5,0.2-0.8c0-0.2,0-0.3-0.1-0.5
	c-0.1-0.2-0.2-0.3-0.3-0.4c-0.1-0.1-0.3-0.1-0.5-0.1c-0.3,0-0.6,0.1-0.8,0.3c-0.2,0.2-0.2,0.5-0.2,0.8H54c0-0.4,0.1-0.7,0.2-1
	c0.2-0.3,0.4-0.5,0.7-0.6c0.3-0.1,0.6-0.2,0.9-0.2c0.5,0,0.9,0.1,1.3,0.4c0.3,0.3,0.5,0.7,0.5,1.2c0,0.3-0.1,0.6-0.2,0.9
	c-0.1,0.3-0.3,0.6-0.6,0.9c-0.2,0.3-0.5,0.5-0.8,0.8c-0.3,0.3-0.5,0.5-0.8,0.7h2.6V44H54z M60.8,44.1c-0.5,0-0.9-0.1-1.3-0.4
	c-0.4-0.2-0.6-0.6-0.8-1c-0.2-0.4-0.3-0.9-0.3-1.5s0.1-1.1,0.3-1.5c0.2-0.4,0.5-0.8,0.8-1c0.4-0.2,0.8-0.4,1.3-0.4
	c0.5,0,0.9,0.1,1.3,0.4c0.4,0.2,0.6,0.6,0.8,1c0.2,0.4,0.3,0.9,0.3,1.5s-0.1,1.1-0.3,1.5c-0.2,0.4-0.5,0.8-0.8,1
	C61.8,44,61.4,44.1,60.8,44.1z M60.8,43.3c0.3,0,0.6-0.1,0.8-0.3c0.2-0.2,0.4-0.4,0.6-0.7c0.1-0.3,0.2-0.7,0.2-1.1s-0.1-0.8-0.2-1.1
	c-0.1-0.3-0.3-0.6-0.6-0.7c-0.2-0.2-0.5-0.3-0.8-0.3c-0.3,0-0.6,0.1-0.8,0.3c-0.2,0.2-0.4,0.4-0.6,0.7c-0.1,0.3-0.2,0.7-0.2,1.1
	s0.1,0.8,0.2,1.1c0.1,0.3,0.3,0.6,0.6,0.7C60.3,43.3,60.5,43.3,60.8,43.3z"/>
<path class="st1" d="M28.9,20.3c-6.4,2-16.8,0-16.9-8.9c-0.1-8.9,11-3.6,11-3.6L28.9,20.3z"/>
<path class="st2" d="M15.1,6.4c4.5-0.8,7.9,5.2,11.7,11.4c3.8,6.2,13.6,8.7,19.8,3.4c6.3-5.2,8.9-14.3,1.2-19.8
	c-7.7-5.4-12.5,6.9-19.1,7.3C22.1,9,22,4.1,15.1,6.4z"/>
<circle class="st0" cx="47.2" cy="11.6" r="2"/>
<circle class="st0" cx="43.4" cy="13.1" r="1.5"/>
<circle class="st0" cx="46" cy="15.1" r="1.1"/>
</svg>
