<?xml version="1.0" encoding="utf-8"?>
<!-- Generator: Adobe Illustrator 24.0.2, SVG Export Plug-In . SVG Version: 6.00 Build 0)  -->
<svg version="1.1" id="Capa_1" xmlns="http://www.w3.org/2000/svg" xmlns:xlink="http://www.w3.org/1999/xlink" x="0px" y="0px"
	 viewBox="0 0 41 25" style="enable-background:new 0 0 41 25;" xml:space="preserve">
<style type="text/css">
	.st0{fill:#8D71C1;}
	.st1{fill:#A783E0;}
	.st2{fill:#DACBF2;}
</style>
<path class="st0" d="M23.7,20.3c6.4,2,16.8,0,16.9-8.9c0.1-8.9-11-3.6-11-3.6L23.7,20.3z"/>
<path class="st1" d="M37.4,6.4c-4.5-0.8-7.9,5.2-11.7,11.4c-3.8,6.2-13.6,8.7-19.8,3.4C-0.3,16-3,6.8,4.7,1.4
	c7.7-5.4,12.5,6.9,19.1,7.3C30.5,9,30.5,4.1,37.4,6.4z"/>
<ellipse class="st2" cx="5.1" cy="11.5" rx="2" ry="2"/>
<circle class="st2" cx="9.1" cy="13.1" r="1.5"/>
<circle class="st2" cx="6.5" cy="15.1" r="1.1"/>
</svg>
